<svg width="24" height="25" viewBox="0 0 24 25" fill="none" xmlns="http://www.w3.org/2000/svg">
<path d="M15.9828 14.25C16.3636 14.25 16.6859 14.5723 16.6859 14.9531V18.2344C16.6859 19.1426 15.9242 19.875 15.0453 19.875H6.13904C5.23083 19.875 4.49841 19.1426 4.49841 18.2344V9.32812C4.49841 8.44922 5.23083 7.6875 6.13904 7.6875H9.42029C9.80115 7.6875 10.1234 8.00977 10.1234 8.39062C10.1234 8.80078 9.80115 9.09375 9.42029 9.09375H6.13904C5.99255 9.09375 5.90466 9.21094 5.90466 9.32812V18.2344C5.90466 18.3809 5.99255 18.4688 6.13904 18.4688H15.0453C15.1625 18.4688 15.2797 18.3809 15.2797 18.2344V14.9531C15.2797 14.5723 15.5726 14.25 15.9828 14.25ZM18.7953 4.875C19.1761 4.875 19.4984 5.19727 19.4984 5.57812V10.5C19.4984 10.9102 19.1761 11.2031 18.7953 11.2031C18.3851 11.2031 18.0922 10.9102 18.0922 10.5V7.27734L10.8265 14.5137C10.7094 14.6602 10.5336 14.7188 10.3578 14.7188C10.1527 14.7188 9.97693 14.6602 9.85974 14.5137C9.56677 14.25 9.56677 13.8105 9.85974 13.5176L17.0961 6.28125H13.8734C13.4633 6.28125 13.1703 5.98828 13.1703 5.57812C13.1703 5.19727 13.4633 4.875 13.8734 4.875H18.7953Z" fill="#3354FF"/>
</svg>
