<svg width="15" height="14" viewBox="0 0 15 14" fill="none" xmlns="http://www.w3.org/2000/svg">
<path d="M0.879761 13.6694C0.995972 13.7856 1.13269 13.8643 1.28992 13.9053C1.44714 13.9463 1.60437 13.9463 1.7616 13.9053C1.92566 13.8643 2.0658 13.7856 2.18201 13.6694L7.43201 8.40918L12.6923 13.6694C12.8085 13.7856 12.9452 13.8643 13.1024 13.9053C13.2596 13.9463 13.4169 13.9463 13.5741 13.9053C13.7313 13.8643 13.868 13.7856 13.9843 13.6694C14.1073 13.5532 14.1859 13.4165 14.2201 13.2593C14.2611 13.0952 14.2611 12.9346 14.2201 12.7773C14.1859 12.6201 14.1073 12.4834 13.9843 12.3672L8.73425 7.10693L13.9843 1.85693C14.1073 1.74072 14.1859 1.604 14.2201 1.44678C14.2611 1.28955 14.2611 1.13232 14.2201 0.975098C14.1859 0.811035 14.1073 0.670898 13.9843 0.554688C13.868 0.438477 13.7313 0.359863 13.5741 0.318848C13.4169 0.277832 13.2596 0.277832 13.1024 0.318848C12.9452 0.359863 12.8085 0.438477 12.6923 0.554688L7.43201 5.81494L2.18201 0.554688C2.0658 0.438477 1.92566 0.359863 1.7616 0.318848C1.60437 0.277832 1.44714 0.277832 1.28992 0.318848C1.13269 0.359863 0.995972 0.438477 0.879761 0.554688C0.756714 0.670898 0.674683 0.811035 0.633667 0.975098C0.599487 1.13232 0.602905 1.28955 0.643921 1.44678C0.684937 1.604 0.76355 1.74072 0.879761 1.85693L6.14001 7.10693L0.879761 12.3672C0.76355 12.4834 0.684937 12.6201 0.643921 12.7773C0.602905 12.9346 0.599487 13.0952 0.633667 13.2593C0.674683 13.4165 0.756714 13.5532 0.879761 13.6694Z" fill="#767B8A"/>
</svg>
